<svg xmlns="http://www.w3.org/2000/svg" xmlns:xlink="http://www.w3.org/1999/xlink" xmlns:inkscape="http://www.inkscape.org/namespaces/inkscape" version="1.1" width="313.6636" height="255.7439" viewBox="0 0 313.6636 255.7439">
<defs>
<clipPath id="clip_0">
<path transform="matrix(1,0,0,-1,1,254.7439)" d="M-135.3779-82.4598H476.6221V709.5402H-135.3779Z" clip-rule="evenodd"/>
</clipPath>
</defs>
<g clip-path="url(#clip_0)">
<g inkscape:groupmode="layer" inkscape:label="Layer 1">
<path transform="matrix(1,0,0,-1,1,254.7439)" d="M0 0H311.6636V253.7439H0Z" fill="#d8a7aa" fill-rule="evenodd"/>
<path transform="matrix(.63684,0,0,-.63684,1,254.7439)" stroke-width="2.0404" stroke-linecap="round" stroke-linejoin="round" fill="none" stroke="#ffffff" d="M246.7811 282.4784C291.4801 282.4784 327.7159 246.3446 327.7159 201.7709 327.7159 157.1978 291.4801 121.0637 246.7811 121.0637 202.0822 121.0637 165.8463 157.1978 165.8463 201.7709 165.8463 246.3446 202.0822 282.4784 246.7811 282.4784Z"/>
<path transform="matrix(.63684,0,0,-.63684,1,254.7439)" stroke-width="2.0404" stroke-linecap="round" stroke-linejoin="round" fill="none" stroke="#ffffff" d="M242.6071 277.3766C287.3058 277.3766 323.5416 241.2422 323.5416 196.6691 323.5416 152.0955 287.3058 115.9617 242.6071 115.9617 197.9079 115.9617 161.672 152.0955 161.672 196.6691 161.672 241.2422 197.9079 277.3766 242.6071 277.3766Z"/>
<path transform="matrix(.60328,0,0,-.60328,1,254.7439)" stroke-width="2.1538" stroke-linecap="round" stroke-linejoin="round" fill="none" stroke="#ffffff" d="M254.5146 289.4522C299.2139 289.4522 335.4497 253.3184 335.4497 208.745 335.4497 164.1716 299.2139 128.0373 254.5146 128.0373 209.8159 128.0373 173.5798 164.1716 173.5798 208.745 173.5798 253.3184 209.8159 289.4522 254.5146 289.4522Z"/>
<path transform="matrix(1,0,0,-1,1,254.7439)" d="M155.2093 123.8746C155.4996 125.2534 157.0603 124.8741 155.2323 126.5437 155.2377 128.3703 158.3728 134.119 159.2226 135.4578 160.3638 137.2555 161.8067 139.6891 163.6798 140.5843 164.5197 140.9854 165.4282 141.1447 165.1825 142.3057 164.2351 142.3015 161.8798 140.1381 161.4305 139.5677 159.0639 136.5633 158.1392 135.1457 156.4466 131.4689L154.4924 126.913 153.6443 126.8014 151.5875 131.3036C150.8014 132.9483 148.8688 135.9774 147.6788 137.3233 146.5982 138.5456 143.5836 141.8528 142.0325 141.4933 141.9857 139.8926 143.8931 140.5871 145.6909 138.7162 147.0762 137.2742 147.4642 136.8916 148.667 135.1539 149.6772 133.6938 152.7891 128.5036 153.0062 126.4309 152.6876 126.1012 152.062 125.7239 152.3381 125.0719 152.5626 124.5416 153.3254 124.3851 153.199 123.658 150.313 127.2529 149.4312 128.4202 146.2654 131.6237 144.6528 133.2553 143.3523 134.4866 141.4984 135.9899 134.6978 141.4208 125.818 147.1286 116.7276 146.706 112.9697 146.5311 113.98 142.9818 114.8528 140.3986 116.4728 135.6041 117.2151 136.0329 119.5858 132.4729 120.5087 131.0865 120.2553 129.8268 121.2627 127.8116 121.5281 127.281 121.6891 126.8731 121.9022 126.3192 122.5114 124.2471 122.0037 123.1084 123.5452 121.9198 123.6566 118.7104 124.3962 117.6412 126.2968 116.1683 125.511 114.8301 125.4521 115.1666 125.3588 112.8098 125.3327 112.1513 125.3225 111.4682 125.2182 110.8142 124.9282 108.9978 124.6073 110.8089 125.2783 107.3443 125.4835 106.2839 125.8673 106.8299 125.6451 105.7711 125.3594 104.4102 125.9855 103.002 126.7169 102.49 127.9216 101.6467 126.6763 101.7292 128.3221 99.8099 129.1405 98.8554 129.9535 98.8486 130.8325 98.034 132.6557 96.3439 132.2892 97.6201 133.6198 96.533 135.0916 95.3308 134.3795 96.8173 136.8856 95.4023 138.8582 94.2883 138.6269 95.1579 140.394 95.0479 142.1048 94.9414 142.4687 94.4949 143.8812 95.4286 146.1365 96.9197 145.5497 94.6471 148.4079 99.5851 150.249 102.7653 152.4365 108.14 153.4246 111.7227 153.8442 108.8705 153.2112 105.7901 154.8153 103.6624 156.2902 104.4541 155.9132 109.7402 155.9747 111.6703 156.2159 111.3426 156.926 109.2518 157.1913 108.5995 158.3087 105.8513 161.4231 99.286 163.3983 97.5574 164.6481 96.4638 165.1901 96.9412 166.375 96.2444 167.9241 95.3334 168.1163 95.7688 169.8908 95.9981 172.01 96.2719 171.6888 95.6163 173.6212 96.6983 174.0025 96.9117 174.5376 97.2632 175.0887 97.3814 177.69 97.9407 176.1097 98.1156 178.1181 98.6261 178.7244 98.78 179.0359 99.1718 179.3356 99.5596 180.5428 101.1217 180.3013 99.5845 181.7478 101.4335 182.0934 101.8755 182.3536 102.1533 182.4684 102.8489 182.6997 104.2509 182.3893 103.621 183.2014 104.3751 183.8693 104.9947 184.36 106.5121 183.9889 107.7885 183.6584 108.9247 184.2035 108.0765 184.2412 109.2838 184.2749 110.3584 184.1927 110.2822 184.4572 111.2519 184.6891 112.1014 183.7653 113.3887 183.6632 114.6711 183.5011 116.7077 183.6901 116.9337 182.6782 118.0857 183.0127 118.5687 184.1457 118.7447 184.7923 121.1632 185.0054 121.9601 185.0102 122.6446 185.0357 123.5078 185.07 124.6552 185.6701 124.1759 185.9635 125.2871 186.3624 126.796 186.101 128.1801 186.7025 129.7485 187.5342 131.8346 187.5506 131.061 187.7414 133.5305 187.835 134.7429 193.4138 141.4142 193.1102 146.6858 192.9325 149.7674 189.5496 149.131 187.3094 148.7755 181.2155 147.8086 175.2381 144.5031 170.4674 140.6789L169.9047 140.2279C169.1751 139.6335 168.5673 139.0538 167.8465 138.4523 166.2352 137.1078 163.2677 134.1094 161.9929 132.5786 160.2635 130.5031 158.4516 128.378 156.903 126.0459 156.5133 125.4591 155.9242 123.969 155.2093 123.8746ZM132.3913 136.6934C132.5599 136.2212 133.5135 135.3135 134.1065 134.0135 135.0859 131.8666 133.9209 132.7584 135.9672 131.4771 136.8896 130.8997 137.8174 130.4362 138.5464 129.6584 139.6298 128.5021 139.5065 127.5222 140.3167 127.0315 141.1554 126.5233 142.4758 126.2293 143.4762 125.7902 146.3601 124.5234 150.4879 121.4923 152.6377 121.8373 152.5085 123.9474 150.5418 125.8183 149.1883 127.1047L143.4909 132.4619C143.0566 132.846 142.7916 133.1906 142.3329 133.556 141.5126 134.2091 140.8643 134.852 139.8501 135.4694 138.1377 136.5123 134.8036 137.4038 132.3913 136.6934ZM156.0376 121.8892C158.6951 122.15 160.2028 123.7535 161.9215 124.8678 163.5874 125.9478 165.8251 126.8425 167.7087 127.8748 169.0758 128.624 168.0335 129.9263 171.8189 132.5591 173.598 133.7967 172.8468 132.9619 173.6374 135.1403 173.8383 135.6939 174.0379 136.1392 174.3007 136.6189 174.9719 137.8457 175.195 137.3613 175.117 138.0467 172.7246 138.5501 169.6487 137.6011 168.0358 136.5687 165.75 135.106 162.2296 130.8883 160.397 128.7587 159.0262 127.1653 156.1453 124.939 156.0376 121.8892ZM152.295 121.1689C148.6803 121.4507 146.425 124.9274 141.5599 126.1344 138.9773 126.775 137.3692 125.5864 134.9702 125.3166 132.7068 125.0617 129.8032 125.3568 129.1209 123.2719 128.3922 121.0442 130.2741 118.7796 132.4641 119.1382 134.212 119.4242 135.8277 120.6286 138.7205 120.7851 142.0707 120.966 146.1543 119.6433 149.5757 120.0821 150.4352 120.1924 152.064 120.5385 152.295 121.1689ZM156.3761 121.0782C158.8564 120.1689 160.4605 120.2771 163.2294 120.7253 167.3858 121.398 169.0282 122.4153 173.3581 121.3954 175.5675 120.875 177.5543 119.5877 179.0507 121.9436 179.5915 122.7954 179.8506 123.9588 179.316 124.9778 178.3647 126.7911 175.5071 126.4776 173.147 126.5939 170.7432 126.7123 168.7788 127.834 166.3586 126.8498 163.6157 125.7347 161.0957 123.0982 159.1396 122.3459 158.7274 122.1874 158.1897 122.0009 157.7395 121.8277 157.0615 121.5663 156.6451 121.4895 156.3761 121.0782ZM156.6913 117.2548C156.3035 116.0637 158.1129 112.7137 158.6418 111.8582 159.6268 110.2649 160.6833 108.8504 161.7341 107.3962 162.8898 105.7969 165.077 102.0679 166.4073 100.9049 169.0744 98.5728 170.041 101.02 168.927 103.3089 168.5245 104.1364 168.0049 104.8677 167.5341 105.6404 166.0513 108.0737 166.0907 109.1418 165.2499 110.9183 165.0521 111.3364 164.6867 111.4217 164.2297 111.6944 162.2778 112.8594 160.395 114.012 158.6645 115.4925ZM152.1241 117.2231C151.8973 117.0751 152.0864 117.2443 151.8721 116.9884L151.3043 116.1995C150.2042 114.7742 147.8358 113.0029 146.3193 111.9382 142.9112 109.5454 144.5125 110.6634 143.3435 107.5918 142.9931 106.6714 142.6292 105.8391 142.2371 104.9664 141.7751 103.9365 139.7455 100.7535 140.9499 99.4725 141.698 98.6766 143.1621 99.6803 143.5348 100.0585 144.1244 100.6569 144.5797 101.4718 145.0633 102.2516 146.01 103.7778 146.9146 105.3023 147.8477 106.9104 149.1936 109.2294 150.9086 111.4265 151.7471 114.0687L152.2449 116.2828C152.3035 116.7732 152.312 116.9459 152.1241 117.2231ZM137.0531 109.0981C140.1707 108.9825 143.6386 110.9931 145.6319 112.2871 147.5926 113.5602 151.1376 115.6768 151.2094 118.5117 150.2308 118.5792 148.0348 117.2653 146.776 116.9926 144.9556 116.598 142.8905 117.8371 141.2362 116.9048 140.1457 116.2902 139.5247 114.5991 139.0028 113.1738 138.5555 111.9523 138.2893 111.0529 137.6697 109.9826 137.4576 109.6163 137.192 109.3966 137.0531 109.0981ZM172.3453 110.2567C172.1418 110.9188 171.5216 111.4875 171.1704 112.0961 170.1842 113.8062 169.4772 116.7761 167.7019 117.6489 166.2256 118.3745 164.1197 117.3186 162.4071 117.4504 160.7647 117.5766 159.0831 118.7614 157.6395 118.7685 157.2077 116.3614 161.5589 114.0506 163.4006 113.0074 166.0105 111.5291 168.7289 110.219 172.3453 110.2567ZM172.7456 132.2444C172.0009 132.1515 171.7038 132.027 171.2503 131.6619 170.536 131.0871 169.611 130.3444 169.2505 129.4903 168.9588 128.7992 169.1887 128.3947 169.7754 128.073 171.0374 127.381 175.0997 126.9524 176.8479 126.7727 178.4452 126.6083 179.3106 126.7333 179.9317 127.8306 180.4833 128.8052 180.5261 130.324 179.8517 131.1525 178.8194 132.4208 174.6703 132.4843 172.7456 132.2444ZM132.8386 130.8762C130.3855 130.6239 127.3136 130.4306 127.7824 127.4641 128.2983 124.1997 130.9431 125.1757 133.5526 125.7109 135.0522 126.0184 139.9912 126.5443 138.856 128.5016 138.5118 129.0949 137.2963 130.11 136.5633 130.4901 135.4674 131.0581 134.1607 131.0122 132.8386 130.8762ZM143.5873 110.0614C141.6591 109.7566 131.7861 103.9995 135.1936 101.2686 136.0998 100.5423 137.7054 100.3136 138.9784 100.7855 140.0471 101.1818 140.5454 102.2114 141.0837 103.2942 141.8564 104.849 143.6584 108.1553 143.5873 110.0614ZM165.8092 110.7215C165.6961 109.6177 168.8204 102.8682 170.8254 101.9395 173.4769 100.7116 178.471 103.496 172.1687 107.7931 171.3651 108.3407 166.8025 110.8199 165.8092 110.7215ZM133.7496 107.9303C133.7681 107.949 133.8004 108 133.8097 107.9804L135.396 108.8753C136.9134 109.8748 138.6377 111.7409 138.4353 113.8708 137.9798 113.9017 134.9631 113.3082 134.1397 113.1877 132.035 112.8804 130.1871 112.303 129.3647 110.1844 129.06 109.3986 129.1144 108.6406 129.6519 108.1298 130.9524 106.8948 132.3454 107.8186 133.7496 107.9303ZM170.6482 114.7839C170.24 114.3669 171.3688 112.5726 171.6225 112.2117 173.3031 109.8224 178.1966 108.0921 179.7494 109.5185 181.4374 111.0694 178.7593 113.701 177.4984 114.1447 176.0431 114.6569 173.742 114.4534 172.2288 114.6078 171.7427 114.6574 170.928 115.0696 170.6482 114.7839ZM173.6555 133.2714C175.0961 132.9046 177.45 132.018 179.028 132.4568 182.4585 134.0254 181.2283 138.6706 177.2813 137.9769L175.9286 137.5795C175.0584 137.2374 174.5909 136.7915 174.2661 135.9797 173.9823 135.2704 173.7771 134.0895 173.6555 133.2714ZM134.2667 131.9746C134.2128 132.5115 133.7451 133.9682 133.5526 134.4674 129.5626 139.9323 123.5537 133.092 128.6235 131.0769L128.9134 130.9615C130.7605 130.4124 132.7218 131.455 134.2667 131.9746ZM168.0559 118.2728C169.6893 116.5995 168.6662 115.473 172.082 115.1637 173.4922 115.0359 177.9123 114.4627 178.5022 115.611 179.1641 116.8994 177.1328 118.5129 174.7517 118.8357 172.7209 119.111 169.9089 118.7989 168.0559 118.2728ZM130.6196 114.0406C131.8859 113.1449 135.3509 113.6169 137.0132 113.9083 139.2469 114.2994 139.32 114.6424 140.1015 116.2363 140.3833 116.8106 140.6313 117.021 140.8524 117.3994 137.9115 117.9488 130.1312 118.3572 130.6196 114.0406ZM159.6302 109.5843C159.6844 106.564 161.2003 102.208 162.8101 99.7872 163.1772 99.235 164.3732 97.5903 165.3854 98.5102 166.926 99.9094 162.5374 105.6183 161.5181 106.9574 161.1794 107.4022 159.9647 109.3527 159.6302 109.5843ZM149.7759 109.182C149.3348 108.8833 146.876 104.457 146.5988 103.9927 142.1107 96.476 145.5846 96.9344 147.236 99.1783 148.8543 101.3774 149.9462 106.4636 149.7759 109.182ZM169.7712 109.7932C169.8452 109.6727 171.4686 108.7087 171.7622 108.5162 173.6833 107.2585 174.2275 106.4906 175.7117 105.4712 176.5647 104.8859 177.3 104.4981 178.0988 105.4171 179.7259 107.2885 177.4826 108.5511 175.9584 109.1075 174.3557 109.6923 171.6205 110.0577 169.7712 109.7932ZM133.7496 107.9303 132.9267 107.5105C132.6161 107.3631 132.3709 107.1921 132.0834 106.9982 131.6225 106.687 131.0992 106.187 131.0805 105.3306 131.0431 103.6012 132.7847 102.9342 133.9744 103.981 134.9515 104.8405 135.608 105.8406 136.6659 106.7057 137.6042 107.473 138.9274 108.0366 139.8966 108.7863 137.1047 108.9598 134.7452 107.977 133.7496 107.9303ZM150.0942 105.0327C150.9511 106.6127 153.0077 111.204 153.3146 112.917 153.4161 113.4831 153.6965 115.791 153.1389 116.2664L150.9086 111.1793C150.3853 109.9718 149.3739 106.3395 150.0942 105.0327ZM159.844 105.287C159.8295 110.1827 157.8719 112.1094 156.1235 115.6592 156.0807 115.746 156.0311 115.8701 155.9781 115.9597L155.7045 116.3066C155.3771 114.1155 156.1703 111.8534 157.0011 110.215L159.6455 105.5078C159.6645 105.4834 159.6889 105.4562 159.7071 105.4344ZM184.7551 138.3381C188.8843 140.6786 180.7894 142.0087 181.7016 139.2608 182.1076 138.0385 183.6947 137.9599 184.7551 138.3381ZM123.6523 138.7553C119.5809 138.5124 122.9924 134.619 125.4053 136.838 127.0698 138.3687 124.8194 138.7463 123.6523 138.7553ZM183.174 144.5556C187.2023 142.5521 189.2871 146.7017 184.3781 146.0137 183.6978 145.9182 182.0092 145.389 183.174 144.5556ZM121.051 143.8254C117.3523 143.1363 122.5162 140.8788 123.9129 142.867 124.8489 144.1996 121.5533 143.8829 121.051 143.8254ZM186.6319 142.9081C184.2358 144.4382 179.7511 142.8633 183.8942 141.9783 184.5116 141.8465 187.3267 141.6325 186.6319 142.9081ZM120.6814 139.9241C125.3639 139.2917 127.2977 142.2714 122.0204 141.5117 121.1145 141.3816 119.4304 140.5454 120.6814 139.9241ZM122.8297 132.8539C124.1708 130.7475 126.9493 134.2449 124.2856 134.7608 122.9287 135.0235 122.4629 133.9892 122.8297 132.8539ZM184.646 134.6077C186.7014 136.9826 181.6994 137.7337 182.4735 135.0714 182.7901 133.9835 183.8375 134.134 184.646 134.6077ZM129.3293 140.9786C128.4599 144.7815 124.7451 141.4009 128.6223 140.5939L129.0138 140.5125 129.2709 140.6132ZM179.839 144.4351C178.501 144.3895 178.0838 143.3616 177.9004 142.1923 180.21 142.2986 180.8263 143.9946 179.839 144.4351ZM128.4129 138.007C134.9127 135.6463 129.8574 140.9151 128.2626 138.1363ZM178.8928 140.205C175.6712 141.1546 174.7074 138.2451 177.7839 139.0663 178.2626 139.1941 179.0657 139.479 179.1592 140.0227ZM182.1577 130.0493C181.7019 129.8546 181.158 129.5606 181.3255 128.8145 181.4624 128.2059 182.4154 128.2822 182.9157 128.4676 184.3869 129.0127 183.5813 130.6579 182.1577 130.0493ZM125.0045 128.092C123.6577 127.2609 125.5249 126.0448 126.5156 126.6608 127.5576 127.3085 126.1284 128.7856 125.0045 128.092ZM190.1526 144.0794C189.087 145.4885 186.4604 143.1618 189.0887 143.098 189.6647 143.0841 190.3414 143.3962 190.1526 144.0794ZM118.1733 142.0832C115.8131 142.251 117.9122 139.5848 119.0509 141.1982 119.4528 141.7677 118.5599 141.9942 118.1733 142.0832ZM126.525 139.5686C128.7187 138.31 130.2749 140.4119 126.8263 140.5483 125.8662 140.5862 125.985 140.1259 126.525 139.5686ZM180.21 116.4189C180.5091 115.8435 181.4834 114.8403 182.3851 114.8924 182.5294 116.0402 181.7813 117.0731 180.6307 116.9515ZM126.7767 113.0539C127.7308 113.2852 128.7734 113.9284 128.7125 115.0877 127.3714 115.6473 126.7115 114.3567 126.7767 113.0539ZM118.326 137.3006C119.7726 136.1234 121.0467 138.892 118.7683 138.3942 118.0828 138.2445 117.9079 137.8769 118.326 137.3006ZM182.0157 123.5271C180.7418 122.9882 181.6427 121.6755 182.7434 122.0811 183.6397 122.4113 183.3531 124.0931 182.0157 123.5271ZM125.862 121.714C124.7117 121.2647 125.6542 119.7162 126.7994 120.2763 127.7606 120.7468 126.883 122.1129 125.862 121.714ZM189.1638 140.5763C187.3749 141.8091 186.9866 138.4926 189.0757 139.5405 189.4552 139.731 189.3906 140.2775 189.1638 140.5763ZM188.1856 146.0934C190.1889 144.8116 190.1466 148.2063 188.2449 147.0294 187.8211 146.7672 187.8471 146.4185 188.1856 146.0934ZM118.98 144.3847C118.8391 145.9519 116.0782 144.0026 117.9544 143.6306 118.5494 143.513 118.8697 143.8305 118.98 144.3847ZM180.4286 127.1066C180.0961 126.0541 181.5168 125.4855 182.0843 126.0295 182.7088 126.6279 181.4411 127.4173 180.4286 127.1066ZM126.0748 124.401C126.7277 123.8448 127.2974 124.1116 127.9009 124.3723L127.868 125.4841C126.9454 125.4594 126.2358 125.1482 126.0748 124.401ZM190.8204 142.2592C190.0729 143.2786 188.913 141.067 190.3581 141.4528 190.7538 141.5582 190.9157 141.8681 190.8204 142.2592ZM117.4198 140.0179C116.0901 140.6384 116.4847 138.3829 117.7024 139.1675 118.146 139.4529 117.6851 139.828 117.4198 140.0179" fill="#ffffff" fill-rule="evenodd"/>
</g>
</g>
</svg>
